<svg xmlns="http://www.w3.org/2000/svg" viewBox="0 0 48 48" id="camera"><path fill="#feb300" d="M24,18a8,8,0,1,0,8,8A8,8,0,0,0,24,18Zm-3.2,5.6A4,4,0,0,0,20,26v1H18V26a5.93,5.93,0,0,1,1.2-3.6l.61-.8,1.59,1.21ZM25,22H24a3.84,3.84,0,0,0-.79.08l-1,.21-.43-1.95,1-.22A5.77,5.77,0,0,1,24,20h1Z" class="color192340 svgShape"></path><path fill="#feb300" d="M41,12H35.54L33,8.23A5,5,0,0,0,28.86,6H19.14A5,5,0,0,0,15,8.23L12.46,12H7a5,5,0,0,0-5,5V37a5,5,0,0,0,5,5H41a5,5,0,0,0,5-5V17A5,5,0,0,0,41,12ZM24,36A10,10,0,1,1,34,26,10,10,0,0,1,24,36Z" class="color192340 svgShape"></path></svg>